<?xml version="1.0" encoding="UTF-8" standalone="no"?>
<!-- Created with Inkscape (http://www.inkscape.org/) -->
<svg
   version="1.1"
   id="svg1"
   width="265"
   height="191"
   viewBox="0 0 265.00001 190.99999"
   sodipodi:docname="favicon.svg"
   xml:space="preserve"
   inkscape:version="1.4.4 (dcaf3e7, 2026-05-05)"
   xmlns:inkscape="http://www.inkscape.org/namespaces/inkscape"
   xmlns:sodipodi="http://sodipodi.sourceforge.net/DTD/sodipodi-0.dtd"
   xmlns="http://www.w3.org/2000/svg"
   xmlns:svg="http://www.w3.org/2000/svg">
   
   <defs id="defs1" />
   
   <sodipodi:namedview
     id="namedview1"
     pagecolor="#ffffff"
     bordercolor="#000000"
     borderopacity="0.25"
     inkscape:showpageshadow="2"
     inkscape:pageopacity="0.0"
     inkscape:pagecheckerboard="0"
     inkscape:deskcolor="#d1d1d1"
     inkscape:zoom="1.42"
     inkscape:cx="167.25352"
     inkscape:cy="108.09859"
     inkscape:window-width="1366"
     inkscape:window-height="705"
     inkscape:window-x="-8"
     inkscape:window-y="-8"
     inkscape:window-maximized="1"
     inkscape:current-layer="g1" />
   
   <!-- CÍRCULO DE FONDO BLANCO -->
   <circle
     cx="132.5"
     cy="95.5"
     r="98"
     style="fill:#FFFFFF" />
   
   <!-- LOGO CON LÍNEAS MÁS GRUESAS Y NEGRAS -->
   <g
     inkscape:groupmode="layer"
     inkscape:label="Image"
     id="g1"
     transform="translate(82.105965,33.199875)">
     
     <!-- Primera capa: relleno negro sólido -->
     <path
       style="fill:#000000; stroke:none"
       d="m -67.810881,150.10957 c -4.048969,-7.03189 -8.588459,-18.94124 -11.248519,-29.5105 -1.88205,-7.47799 -2.19182,-11.46062 -2.19401,-28.207395 -0.002,-17.949379 0.20965,-20.301165 2.666,-29.575136 6.4797,-24.464146 17.543106,-43.596658 35.06613,-60.6416422 16.651499,-16.1972358 36.9450591,-27.4390928 60.089315,-33.2871898 9.132488,-2.307599 11.623759,-2.494916 33,-2.481251 24.462278,0.01564 27.647249,0.420118 42.995759,5.460309 20.947116,6.878678 40.493426,20.0236868 56.146486,37.7588435 6.25177,7.0833455 16.76529,23.4087625 16.18885,25.1380785 -0.79768,2.39305 -2.50638,1.113275 -6.97958,-5.227525 C 152.79383,22.270393 139.8127,8.9217905 131.68981,2.5638959 114.48991,-10.898689 92.121404,-20.146854 69.627365,-23.095565 55.143044,-24.994293 50.200714,-24.98943 35.491027,-23.061977 1.3625721,-18.590026 -29.481802,-0.65877386 -49.800165,26.521712 -60.9418,41.426214 -67.96817,56.960365 -71.93493,75.458056 c -4.29594,20.032707 -2.3728,49.317764 4.263176,64.918234 l 1.920709,4.51539 -0.588663,-8.83535 c -0.714239,-10.72013 -0.565887,-11.00116 10.7584,-20.38006 18.163001,-15.04282 62.7373951,-49.464421 68.993666,-53.27886 5.771156,-3.518667 7.519474,-2.848519 23.357306,8.953086 l 14.706809,10.958822 4.606669,-4.087409 C 67.152511,68.40027 80.317953,57.258375 88.163127,51.072662 c 11.336068,-8.93819 11.964663,-8.913819 25.804093,1.000428 30.31618,21.717811 63.03766,47.99122 64.94888,52.15012 0.69186,1.50552 1.03174,4.84752 0.77987,7.66847 -0.24553,2.75 -0.71265,7.9625 -1.03804,11.58333 -0.4347,4.83719 -0.97913,6.58333 -2.05265,6.58333 -1.71808,0 -2.01281,-1.24741 -3.09762,-13.1105 l -0.81785,-8.94384 -9.46507,-6.3602 C 149.17968,92.206002 130.52886,78.896742 114.19426,66.655559 L 99.698705,55.79257 82.694259,66.925064 c -9.352447,6.122872 -19.366491,12.445171 -22.253432,14.049553 -2.886941,1.604382 -5.249441,3.164269 -5.25,3.466417 -5.59e-4,0.302147 10.388044,8.831843 23.085784,18.954886 12.697741,10.12303 23.722749,19.31345 24.500009,20.42314 2.19541,3.13439 1.30838,28.69248 -0.98131,28.27445 -2.087575,-0.38113 -2.575137,-2.21758 -2.708502,-10.20183 C 98.865186,128.6236 99.167671,129.11684 85.66506,120.00565 71.790863,110.64372 48.428568,94.173275 31.612399,81.89846 25.202662,77.219728 19.528968,73.391675 19.00419,73.391675 c -0.524777,0 -7.335194,4.637488 -15.1342599,10.305529 -14.1424191,10.27813 -32.8598011,23.456866 -52.5942801,37.031136 -5.727788,3.93983 -10.771194,7.83834 -11.207569,8.66334 -0.436374,0.825 -1.079903,6.75562 -1.430063,13.17916 -0.766097,14.05376 -1.920495,15.40324 -6.448899,7.53873 z m 2.65798,-1.42863 c 0.129072,-2.22328 -0.01518,-2.40113 -0.804122,-0.99137 -0.528776,0.94487 -0.685499,2.16438 -0.348272,2.71002 0.883546,1.42961 0.977782,1.28907 1.152394,-1.71865 z m 2.004992,-1.53926 c -0.277412,-0.6875 -0.504386,-0.125 -0.504386,1.25 0,1.375 0.226974,1.9375 0.504386,1.25 0.277412,-0.6875 0.277412,-1.8125 0,-2.5 z m 12.156696,-28.68499 c 11.643409,-7.85667 26.08754,-17.83539 33.681023,-23.268527 2.2,-1.5741 5.125,-3.628745 6.5,-4.565879 1.3750001,-0.937134 7.4500001,-5.342004 13.5000001,-9.788601 6.05,-4.446597 12.2400539,-8.893539 13.7556759,-9.882093 l 2.755676,-1.797372 7.244324,5.29796 c 20.542872,15.02353 43.334588,31.105102 61.046877,43.073972 6.491404,4.38649 12.200382,8.9632 12.686617,10.17048 0.5636,1.39937 0.90704,1.62997 0.94745,0.63617 0.0975,-2.39861 -1.457755,-3.92322 -15.43662,-15.13217 C 46.476144,81.75713 21.876107,63.389497 18.991475,63.400274 16.276766,63.410414 -6.6038849,80.32769 -42.31019,108.7249 c -19.595851,15.58458 -21.535321,17.45708 -21.350168,20.61294 0.14658,2.4984 0.15893,2.49357 0.568977,-0.22263 0.340533,-2.25574 2.609934,-4.25476 12.100168,-10.65852 z m -24.135867,3.74749 c -0.31922,-0.79774 -0.55618,-0.56078 -0.60416,0.60416 -0.0434,1.05417 0.19292,1.64479 0.52522,1.3125 0.33229,-0.33229 0.36781,-1.19479 0.079,-1.91666 z m -1.45115,-17.0625 c -0.56746,-16.959877 1.34464,-32.171442 5.63756,-44.849093 15.400964,-45.481466 54.395647,-78.125948 102.63048,-85.917329 11.437947,-1.847574 34.81785,-1.364572 46.184397,0.954117 22.671283,4.624767 43.525933,14.422653 59.914043,28.1486955 3.10681,2.602144 2.41274,1.712961 -1.89556,-2.4284169 C 120.1161,-14.115683 98.940802,-24.841761 74.137233,-30.231801 61.597003,-32.956906 36.073273,-32.775844 23.041846,-29.869336 -3.5777179,-23.932153 -23.631761,-12.91974 -42.872196,6.3264875 -61.002624,24.462376 -71.72336,44.076759 -76.7414,68.29273 c -3.21479,15.513883 -3.64155,26.028102 -1.60364,39.50944 0.96356,6.37423 1.86256,11.58951 1.99777,11.58951 0.13521,0 0.0313,-6.4125 -0.23096,-14.25 z m 249.13164,-3.60136 C 154.45468,85.068037 103.89591,47.391675 99.890105,47.391675 c -1.498188,0 -6.872712,3.676727 -14.77741,10.109267 -16.101084,13.102445 -22.192223,19.141296 -12.922885,12.811951 9.174886,-6.26485 27.087182,-17.921218 27.539465,-17.921218 0.300165,0 9.189075,6.446025 19.753145,14.3245 10.56407,7.878475 24.05599,17.665975 29.98207,21.75 27.42941,18.903295 25.10939,16.871685 26.22532,22.965095 l 1,5.46041 0.3223,-5.5 c 0.31873,-5.43897 0.26925,-5.54829 -4.4587,-9.85136 z m -22.3636,-86.461554 c 0,-0.1721 -1.4625,-1.6346 -3.25,-3.25 l -3.25,-2.9370915 2.93709,3.2500005 c 2.73778,3.029456 3.56291,3.709652 3.56291,2.937091 z"
       id="path1" />
     
     <!-- Segunda capa: trazo negro más grueso para engrosar las líneas -->
     <path
       style="fill:none; stroke:#000000; stroke-width:8; stroke-linecap:round; stroke-linejoin:round"
       d="m -67.810881,150.10957 c -4.048969,-7.03189 -8.588459,-18.94124 -11.248519,-29.5105 -1.88205,-7.47799 -2.19182,-11.46062 -2.19401,-28.207395 -0.002,-17.949379 0.20965,-20.301165 2.666,-29.575136 6.4797,-24.464146 17.543106,-43.596658 35.06613,-60.6416422 16.651499,-16.1972358 36.9450591,-27.4390928 60.089315,-33.2871898 9.132488,-2.307599 11.623759,-2.494916 33,-2.481251 24.462278,0.01564 27.647249,0.420118 42.995759,5.460309 20.947116,6.878678 40.493426,20.0236868 56.146486,37.7588435 6.25177,7.0833455 16.76529,23.4087625 16.18885,25.1380785 -0.79768,2.39305 -2.50638,1.113275 -6.97958,-5.227525 C 152.79383,22.270393 139.8127,8.9217905 131.68981,2.5638959 114.48991,-10.898689 92.121404,-20.146854 69.627365,-23.095565 55.143044,-24.994293 50.200714,-24.98943 35.491027,-23.061977 1.3625721,-18.590026 -29.481802,-0.65877386 -49.800165,26.521712 -60.9418,41.426214 -67.96817,56.960365 -71.93493,75.458056 c -4.29594,20.032707 -2.3728,49.317764 4.263176,64.918234 l 1.920709,4.51539 -0.588663,-8.83535 c -0.714239,-10.72013 -0.565887,-11.00116 10.7584,-20.38006 18.163001,-15.04282 62.7373951,-49.464421 68.993666,-53.27886 5.771156,-3.518667 7.519474,-2.848519 23.357306,8.953086 l 14.706809,10.958822 4.606669,-4.087409 C 67.152511,68.40027 80.317953,57.258375 88.163127,51.072662 c 11.336068,-8.93819 11.964663,-8.913819 25.804093,1.000428 30.31618,21.717811 63.03766,47.99122 64.94888,52.15012 0.69186,1.50552 1.03174,4.84752 0.77987,7.66847 -0.24553,2.75 -0.71265,7.9625 -1.03804,11.58333 -0.4347,4.83719 -0.97913,6.58333 -2.05265,6.58333 -1.71808,0 -2.01281,-1.24741 -3.09762,-13.1105 l -0.81785,-8.94384 -9.46507,-6.3602 C 149.17968,92.206002 130.52886,78.896742 114.19426,66.655559 L 99.698705,55.79257 82.694259,66.925064 c -9.352447,6.122872 -19.366491,12.445171 -22.253432,14.049553 -2.886941,1.604382 -5.249441,3.164269 -5.25,3.466417 -5.59e-4,0.302147 10.388044,8.831843 23.085784,18.954886 12.697741,10.12303 23.722749,19.31345 24.500009,20.42314 2.19541,3.13439 1.30838,28.69248 -0.98131,28.27445 -2.087575,-0.38113 -2.575137,-2.21758 -2.708502,-10.20183 C 98.865186,128.6236 99.167671,129.11684 85.66506,120.00565 71.790863,110.64372 48.428568,94.173275 31.612399,81.89846 25.202662,77.219728 19.528968,73.391675 19.00419,73.391675 c -0.524777,0 -7.335194,4.637488 -15.1342599,10.305529 -14.1424191,10.27813 -32.8598011,23.456866 -52.5942801,37.031136 -5.727788,3.93983 -10.771194,7.83834 -11.207569,8.66334 -0.436374,0.825 -1.079903,6.75562 -1.430063,13.17916 -0.766097,14.05376 -1.920495,15.40324 -6.448899,7.53873 z m 2.65798,-1.42863 c 0.129072,-2.22328 -0.01518,-2.40113 -0.804122,-0.99137 -0.528776,0.94487 -0.685499,2.16438 -0.348272,2.71002 0.883546,1.42961 0.977782,1.28907 1.152394,-1.71865 z m 2.004992,-1.53926 c -0.277412,-0.6875 -0.504386,-0.125 -0.504386,1.25 0,1.375 0.226974,1.9375 0.504386,1.25 0.277412,-0.6875 0.277412,-1.8125 0,-2.5 z m 12.156696,-28.68499 c 11.643409,-7.85667 26.08754,-17.83539 33.681023,-23.268527 2.2,-1.5741 5.125,-3.628745 6.5,-4.565879 1.3750001,-0.937134 7.4500001,-5.342004 13.5000001,-9.788601 6.05,-4.446597 12.2400539,-8.893539 13.7556759,-9.882093 l 2.755676,-1.797372 7.244324,5.29796 c 20.542872,15.02353 43.334588,31.105102 61.046877,43.073972 6.491404,4.38649 12.200382,8.9632 12.686617,10.17048 0.5636,1.39937 0.90704,1.62997 0.94745,0.63617 0.0975,-2.39861 -1.457755,-3.92322 -15.43662,-15.13217 C 46.476144,81.75713 21.876107,63.389497 18.991475,63.400274 16.276766,63.410414 -6.6038849,80.32769 -42.31019,108.7249 c -19.595851,15.58458 -21.535321,17.45708 -21.350168,20.61294 0.14658,2.4984 0.15893,2.49357 0.568977,-0.22263 0.340533,-2.25574 2.609934,-4.25476 12.100168,-10.65852 z m -24.135867,3.74749 c -0.31922,-0.79774 -0.55618,-0.56078 -0.60416,0.60416 -0.0434,1.05417 0.19292,1.64479 0.52522,1.3125 0.33229,-0.33229 0.36781,-1.19479 0.079,-1.91666 z m -1.45115,-17.0625 c -0.56746,-16.959877 1.34464,-32.171442 5.63756,-44.849093 15.400964,-45.481466 54.395647,-78.125948 102.63048,-85.917329 11.437947,-1.847574 34.81785,-1.364572 46.184397,0.954117 22.671283,4.624767 43.525933,14.422653 59.914043,28.1486955 3.10681,2.602144 2.41274,1.712961 -1.89556,-2.4284169 C 120.1161,-14.115683 98.940802,-24.841761 74.137233,-30.231801 61.597003,-32.956906 36.073273,-32.775844 23.041846,-29.869336 -3.5777179,-23.932153 -23.631761,-12.91974 -42.872196,6.3264875 -61.002624,24.462376 -71.72336,44.076759 -76.7414,68.29273 c -3.21479,15.513883 -3.64155,26.028102 -1.60364,39.50944 0.96356,6.37423 1.86256,11.58951 1.99777,11.58951 0.13521,0 0.0313,-6.4125 -0.23096,-14.25 z m 249.13164,-3.60136 C 154.45468,85.068037 103.89591,47.391675 99.890105,47.391675 c -1.498188,0 -6.872712,3.676727 -14.77741,10.109267 -16.101084,13.102445 -22.192223,19.141296 -12.922885,12.811951 9.174886,-6.26485 27.087182,-17.921218 27.539465,-17.921218 0.300165,0 9.189075,6.446025 19.753145,14.3245 10.56407,7.878475 24.05599,17.665975 29.98207,21.75 27.42941,18.903295 25.10939,16.871685 26.22532,22.965095 l 1,5.46041 0.3223,-5.5 c 0.31873,-5.43897 0.26925,-5.54829 -4.4587,-9.85136 z m -22.3636,-86.461554 c 0,-0.1721 -1.4625,-1.6346 -3.25,-3.25 l -3.25,-2.9370915 2.93709,3.2500005 c 2.73778,3.029456 3.56291,3.709652 3.56291,2.937091 z"
       id="path1-stroke" />
   </g>
</svg>